<svg xmlns="http://www.w3.org/2000/svg" xmlns:xlink="http://www.w3.org/1999/xlink" width="325.46875" height="56.390625" style="width:325.46875px;height:56.390625px;font-family:Asana-Math, Asana;background:#FFF;"><g><g><g><g transform="matrix(1,0,0,1,18,35)"><path transform="matrix(0.017,0,0,-0.017,0,0)" d="M592 697L480 697L371 401L180 401L71 697L26 697L294 -15L311 -15ZM355 359L275 145L196 359Z" stroke="rgb(0,0,0)" stroke-opacity="1" stroke-width="8" fill="rgb(0,0,0)" fill-opacity="1"></path></g></g><g><g transform="matrix(1,0,0,1,28.5,35)"><path transform="matrix(0.017,0,0,-0.017,0,0)" d="M342 330L365 330C373 395 380 432 389 458C365 473 330 482 293 482C248 483 175 463 118 400C64 352 25 241 25 136C25 40 67 -11 147 -11C201 -11 249 9 304 54L354 95L346 115L331 105C259 57 221 40 186 40C130 40 101 80 101 159C101 267 136 371 185 409C206 425 230 433 261 433C306 433 342 414 342 390Z" stroke="rgb(0,0,0)" stroke-opacity="1" stroke-width="8" fill="rgb(0,0,0)" fill-opacity="1"></path></g></g><g><g transform="matrix(1,0,0,1,44.734375,35)"><path transform="matrix(0.017,0,0,-0.017,0,0)" d="M509 8L509 61L309 61C215 61 122 139 109 244L492 244L492 297L109 297C121 397 204 480 309 480L509 480L509 533L314 533C167 533 55 411 55 271C55 131 167 8 314 8Z" stroke="rgb(0,0,0)" stroke-opacity="1" stroke-width="8" fill="rgb(0,0,0)" fill-opacity="1"></path></g></g><g><g transform="matrix(1,0,0,1,59.40625,35)"><path transform="matrix(0.017,0,0,-0.017,0,0)" d="M294 284C294 90 401 -18 592 -18C688 -18 759 5 849 67C849 67 859 103 859 103C859 103 849 110 849 110C755 53 703 35 625 35C468 35 382 131 382 309C382 447 439 653 667 653C738 653 790 639 846 603L846 519L873 519C878 576 886 619 900 665C824 694 767 706 705 706C525 706 294 578 294 284Z" stroke="rgb(0,0,0)" stroke-opacity="1" stroke-width="8" fill="rgb(0,0,0)" fill-opacity="1"></path></g></g><g><g transform="matrix(1,0,0,1,75.328125,35)"><path transform="matrix(0.017,0,0,-0.017,0,0)" d="M204 123C177 114 159 108 106 93C99 17 74 -48 16 -144L30 -155L71 -136C152 -31 190 32 218 109Z" stroke="rgb(0,0,0)" stroke-opacity="1" stroke-width="8" fill="rgb(0,0,0)" fill-opacity="1"></path></g></g><g><g transform="matrix(1,0,0,1,82.953125,35)"><path transform="matrix(0.017,0,0,-0.017,0,0)" d="" stroke="rgb(0,0,0)" stroke-opacity="1" stroke-width="8" fill="rgb(0,0,0)" fill-opacity="1"></path></g></g><g><g transform="matrix(1,0,0,1,87.1875,35)"><path transform="matrix(0.017,0,0,-0.017,0,0)" d="M592 697L480 697L371 401L180 401L71 697L26 697L294 -15L311 -15ZM355 359L275 145L196 359Z" stroke="rgb(0,0,0)" stroke-opacity="1" stroke-width="8" fill="rgb(0,0,0)" fill-opacity="1"></path></g></g><g><g transform="matrix(1,0,0,1,97.6875,35)"><path transform="matrix(0.017,0,0,-0.017,0,0)" d="M328 111L304 94C251 56 203 36 167 36C120 36 91 73 91 133C91 158 94 185 99 214C116 218 225 248 250 259C335 296 374 342 374 404C374 451 340 482 290 482C222 496 112 423 75 349C45 299 15 180 15 113C15 35 59 -11 131 -11C188 -11 244 17 336 92ZM113 274C130 343 150 386 179 412C197 428 228 440 252 440C281 440 300 420 300 388C300 344 265 297 213 272C185 258 149 247 104 237Z" stroke="rgb(0,0,0)" stroke-opacity="1" stroke-width="8" fill="rgb(0,0,0)" fill-opacity="1"></path></g></g><g><g transform="matrix(1,0,0,1,113.625,35)"><path transform="matrix(0.017,0,0,-0.017,0,0)" d="M509 8L509 61L309 61C215 61 122 139 109 244L492 244L492 297L109 297C121 397 204 480 309 480L509 480L509 533L314 533C167 533 55 411 55 271C55 131 167 8 314 8Z" stroke="rgb(0,0,0)" stroke-opacity="1" stroke-width="8" fill="rgb(0,0,0)" fill-opacity="1"></path></g></g><g><g transform="matrix(1,0,0,1,128.296875,35)"><path transform="matrix(0.017,0,0,-0.017,0,0)" d="M470 334L587 334L719 330L738 375L734 382C653 378 593 376 515 376L478 376L525 646C557 647 640 650 662 650C724 650 765 641 766 626L774 537L798 537C801 601 808 651 819 689C798 691 768 692 750 692C747 692 736 692 712 691L592 690C583 689 409 691 399 691L354 692L351 664L405 662C429 661 440 653 440 635C440 621 436 589 431 559L344 55C340 37 328 30 284 23L279 -3L320 -2C351 -1 413 0 433 0L658 -3C672 -3 697 -2 730 -1L763 0L767 36C769 56 774 86 783 135L788 161L761 161L745 101C735 65 726 53 704 48C684 44 611 39 557 39C516 39 489 40 420 46Z" stroke="rgb(0,0,0)" stroke-opacity="1" stroke-width="8" fill="rgb(0,0,0)" fill-opacity="1"></path></g></g><g><g transform="matrix(1,0,0,1,146.296875,35)"><path transform="matrix(0.017,0,0,-0.017,0,0)" d="M123 111C93 111 66 83 66 53C66 23 93 -5 122 -5C154 -5 182 22 182 53C182 83 154 111 123 111ZM123 456C93 456 66 428 66 398C66 368 93 340 122 340C154 340 182 367 182 397C182 428 154 456 123 456Z" stroke="rgb(0,0,0)" stroke-opacity="1" stroke-width="8" fill="rgb(0,0,0)" fill-opacity="1"></path></g></g><g><g transform="matrix(1,0,0,1,153.921875,35)"><path transform="matrix(0.017,0,0,-0.017,0,0)" d="M500 722L488 733C436 707 400 698 328 691L324 670L372 670C396 670 406 663 406 648C406 645 406 640 403 622C392 567 319 182 304 132C291 82 285 52 285 31C285 6 296 -9 315 -9C341 -9 377 12 475 85L465 103L439 86C410 67 388 56 378 56C371 56 365 66 365 76C365 82 366 89 369 104ZM854 111L830 94C777 56 729 36 693 36C646 36 617 73 617 133C617 158 620 185 625 214C642 218 751 248 776 259C861 296 900 342 900 404C900 451 866 482 816 482C748 496 638 423 601 349C571 299 541 180 541 113C541 35 585 -11 657 -11C714 -11 770 17 862 92ZM639 274C656 343 676 386 705 412C723 428 754 440 778 440C807 440 826 420 826 388C826 344 791 297 739 272C711 258 675 247 630 237ZM945 148C940 97 934 62 923 16C961 -2 995 -11 1030 -11C1079 -11 1125 7 1176 47C1227 87 1248 124 1248 174C1248 228 1216 257 1142 271L1099 279C1039 290 1020 307 1020 348C1020 401 1065 442 1122 442C1163 442 1201 424 1217 397L1217 342L1240 342C1244 377 1248 404 1259 455C1220 474 1192 482 1159 482C1107 482 1046 452 998 404C972 377 961 352 961 316C961 260 992 228 1058 215L1121 203C1165 195 1181 177 1181 138C1181 73 1135 29 1064 29C1029 29 998 40 970 64L970 148ZM1333 148C1328 97 1322 62 1311 16C1349 -2 1383 -11 1418 -11C1467 -11 1513 7 1564 47C1615 87 1636 124 1636 174C1636 228 1604 257 1530 271L1487 279C1427 290 1408 307 1408 348C1408 401 1453 442 1510 442C1551 442 1589 424 1605 397L1605 342L1628 342C1632 377 1636 404 1647 455C1608 474 1580 482 1547 482C1495 482 1434 452 1386 404C1360 377 1349 352 1349 316C1349 260 1380 228 1446 215L1509 203C1553 195 1569 177 1569 138C1569 73 1523 29 1452 29C1417 29 1386 40 1358 64L1358 148Z" stroke="rgb(0,0,0)" stroke-opacity="1" stroke-width="8" fill="rgb(0,0,0)" fill-opacity="1"></path></g></g><g><g transform="matrix(1,0,0,1,182.65625,35)"><path transform="matrix(0.017,0,0,-0.017,0,0)" d="M146 266C146 526 243 632 301 700L282 726C225 675 60 542 60 266C60 159 85 58 133 -32C168 -99 200 -138 282 -215L301 -194C255 -137 146 -15 146 266Z" stroke="rgb(0,0,0)" stroke-opacity="1" stroke-width="8" fill="rgb(0,0,0)" fill-opacity="1"></path></g></g><g><g transform="matrix(1,0,0,1,188.3125,35)"><path transform="matrix(0.017,0,0,-0.017,0,0)" d="M342 330L365 330C373 395 380 432 389 458C365 473 330 482 293 482C248 483 175 463 118 400C64 352 25 241 25 136C25 40 67 -11 147 -11C201 -11 249 9 304 54L354 95L346 115L331 105C259 57 221 40 186 40C130 40 101 80 101 159C101 267 136 371 185 409C206 425 230 433 261 433C306 433 342 414 342 390Z" stroke="rgb(0,0,0)" stroke-opacity="1" stroke-width="8" fill="rgb(0,0,0)" fill-opacity="1"></path></g></g><g><g transform="matrix(1,0,0,1,195.21875,35)"><path transform="matrix(0.017,0,0,-0.017,0,0)" d="M204 123C177 114 159 108 106 93C99 17 74 -48 16 -144L30 -155L71 -136C152 -31 190 32 218 109Z" stroke="rgb(0,0,0)" stroke-opacity="1" stroke-width="8" fill="rgb(0,0,0)" fill-opacity="1"></path></g></g><g><g transform="matrix(1,0,0,1,202.84375,35)"><path transform="matrix(0.017,0,0,-0.017,0,0)" d="M577 111L553 94C500 56 452 36 416 36C369 36 340 73 340 133C340 158 343 185 348 214C365 218 474 248 499 259C584 296 623 342 623 404C623 451 589 482 539 482C471 496 361 423 324 349C294 299 264 180 264 113C264 35 308 -11 380 -11C437 -11 493 17 585 92ZM362 274C379 343 399 386 428 412C446 428 477 440 501 440C530 440 549 420 549 388C549 344 514 297 462 272C434 258 398 247 353 237Z" stroke="rgb(0,0,0)" stroke-opacity="1" stroke-width="8" fill="rgb(0,0,0)" fill-opacity="1"></path></g></g><g><g transform="matrix(1,0,0,1,213.6875,35)"><path transform="matrix(0.017,0,0,-0.017,0,0)" d="M51 726L32 700C87 636 187 526 187 266C187 -10 83 -131 32 -194L51 -215C104 -165 273 -23 273 265C273 542 108 675 51 726Z" stroke="rgb(0,0,0)" stroke-opacity="1" stroke-width="8" fill="rgb(0,0,0)" fill-opacity="1"></path></g></g><g><g transform="matrix(1,0,0,1,219.34375,35)"><path transform="matrix(0.017,0,0,-0.017,0,0)" d="" stroke="rgb(0,0,0)" stroke-opacity="1" stroke-width="8" fill="rgb(0,0,0)" fill-opacity="1"></path></g></g><g><g transform="matrix(1,0,0,1,226.96875,35)"><path transform="matrix(0.017,0,0,-0.017,0,0)" d="M623 585L563 585L345 105L125 585L65 585L336 0L354 0Z" stroke="rgb(0,0,0)" stroke-opacity="1" stroke-width="8" fill="rgb(0,0,0)" fill-opacity="1"></path></g></g><g><g transform="matrix(1,0,0,1,242.046875,35)"><path transform="matrix(0.017,0,0,-0.017,0,0)" d="M500 722L488 733C436 707 400 698 328 691L324 670L372 670C396 670 406 663 406 648C406 645 406 640 403 622C392 567 319 182 304 132C291 82 285 52 285 31C285 6 296 -9 315 -9C341 -9 377 12 475 85L465 103L439 86C410 67 388 56 378 56C371 56 365 66 365 76C365 82 366 89 369 104ZM854 111L830 94C777 56 729 36 693 36C646 36 617 73 617 133C617 158 620 185 625 214C642 218 751 248 776 259C861 296 900 342 900 404C900 451 866 482 816 482C748 496 638 423 601 349C571 299 541 180 541 113C541 35 585 -11 657 -11C714 -11 770 17 862 92ZM639 274C656 343 676 386 705 412C723 428 754 440 778 440C807 440 826 420 826 388C826 344 791 297 739 272C711 258 675 247 630 237ZM945 148C940 97 934 62 923 16C961 -2 995 -11 1030 -11C1079 -11 1125 7 1176 47C1227 87 1248 124 1248 174C1248 228 1216 257 1142 271L1099 279C1039 290 1020 307 1020 348C1020 401 1065 442 1122 442C1163 442 1201 424 1217 397L1217 342L1240 342C1244 377 1248 404 1259 455C1220 474 1192 482 1159 482C1107 482 1046 452 998 404C972 377 961 352 961 316C961 260 992 228 1058 215L1121 203C1165 195 1181 177 1181 138C1181 73 1135 29 1064 29C1029 29 998 40 970 64L970 148ZM1333 148C1328 97 1322 62 1311 16C1349 -2 1383 -11 1418 -11C1467 -11 1513 7 1564 47C1615 87 1636 124 1636 174C1636 228 1604 257 1530 271L1487 279C1427 290 1408 307 1408 348C1408 401 1453 442 1510 442C1551 442 1589 424 1605 397L1605 342L1628 342C1632 377 1636 404 1647 455C1608 474 1580 482 1547 482C1495 482 1434 452 1386 404C1360 377 1349 352 1349 316C1349 260 1380 228 1446 215L1509 203C1553 195 1569 177 1569 138C1569 73 1523 29 1452 29C1417 29 1386 40 1358 64L1358 148Z" stroke="rgb(0,0,0)" stroke-opacity="1" stroke-width="8" fill="rgb(0,0,0)" fill-opacity="1"></path></g></g><g><g transform="matrix(1,0,0,1,270.78125,35)"><path transform="matrix(0.017,0,0,-0.017,0,0)" d="M146 266C146 526 243 632 301 700L282 726C225 675 60 542 60 266C60 159 85 58 133 -32C168 -99 200 -138 282 -215L301 -194C255 -137 146 -15 146 266Z" stroke="rgb(0,0,0)" stroke-opacity="1" stroke-width="8" fill="rgb(0,0,0)" fill-opacity="1"></path></g></g><g><g transform="matrix(1,0,0,1,276.4375,35)"><path transform="matrix(0.017,0,0,-0.017,0,0)" d="M328 111L304 94C251 56 203 36 167 36C120 36 91 73 91 133C91 158 94 185 99 214C116 218 225 248 250 259C335 296 374 342 374 404C374 451 340 482 290 482C222 496 112 423 75 349C45 299 15 180 15 113C15 35 59 -11 131 -11C188 -11 244 17 336 92ZM113 274C130 343 150 386 179 412C197 428 228 440 252 440C281 440 300 420 300 388C300 344 265 297 213 272C185 258 149 247 104 237Z" stroke="rgb(0,0,0)" stroke-opacity="1" stroke-width="8" fill="rgb(0,0,0)" fill-opacity="1"></path></g></g><g><g transform="matrix(1,0,0,1,283.046875,35)"><path transform="matrix(0.017,0,0,-0.017,0,0)" d="M204 123C177 114 159 108 106 93C99 17 74 -48 16 -144L30 -155L71 -136C152 -31 190 32 218 109Z" stroke="rgb(0,0,0)" stroke-opacity="1" stroke-width="8" fill="rgb(0,0,0)" fill-opacity="1"></path></g></g><g><g transform="matrix(1,0,0,1,290.671875,35)"><path transform="matrix(0.017,0,0,-0.017,0,0)" d="M591 330L614 330C622 395 629 432 638 458C614 473 579 482 542 482C497 483 424 463 367 400C313 352 274 241 274 136C274 40 316 -11 396 -11C450 -11 498 9 553 54L603 95L595 115L580 105C508 57 470 40 435 40C379 40 350 80 350 159C350 267 385 371 434 409C455 425 479 433 510 433C555 433 591 414 591 390Z" stroke="rgb(0,0,0)" stroke-opacity="1" stroke-width="8" fill="rgb(0,0,0)" fill-opacity="1"></path></g></g><g><g transform="matrix(1,0,0,1,301.8125,35)"><path transform="matrix(0.017,0,0,-0.017,0,0)" d="M51 726L32 700C87 636 187 526 187 266C187 -10 83 -131 32 -194L51 -215C104 -165 273 -23 273 265C273 542 108 675 51 726Z" stroke="rgb(0,0,0)" stroke-opacity="1" stroke-width="8" fill="rgb(0,0,0)" fill-opacity="1"></path></g></g></g></g></svg>